%TF.GenerationSoftware,Altium Limited,Altium Designer,23.11.1 (41)*%
G04 Layer_Color=8388736*
%FSLAX45Y45*%
%MOMM*%
%TF.SameCoordinates,C7FADA28-A10F-464C-AF39-1642763F89C2*%
%TF.FilePolarity,Negative*%
%TF.FileFunction,Soldermask,Top*%
%TF.Part,Single*%
G01*
G75*
%TA.AperFunction,SMDPad,CuDef*%
%ADD10R,1.80524X0.60981*%
%ADD14R,2.80415X1.55328*%
G04:AMPARAMS|DCode=26|XSize=0.65mm|YSize=1.05mm|CornerRadius=0.2mm|HoleSize=0mm|Usage=FLASHONLY|Rotation=180.000|XOffset=0mm|YOffset=0mm|HoleType=Round|Shape=RoundedRectangle|*
%AMROUNDEDRECTD26*
21,1,0.65000,0.65000,0,0,180.0*
21,1,0.25000,1.05000,0,0,180.0*
1,1,0.40000,-0.12500,0.32500*
1,1,0.40000,0.12500,0.32500*
1,1,0.40000,0.12500,-0.32500*
1,1,0.40000,-0.12500,-0.32500*
%
%ADD26ROUNDEDRECTD26*%
G04:AMPARAMS|DCode=27|XSize=0.95mm|YSize=1.45mm|CornerRadius=0.275mm|HoleSize=0mm|Usage=FLASHONLY|Rotation=0.000|XOffset=0mm|YOffset=0mm|HoleType=Round|Shape=RoundedRectangle|*
%AMROUNDEDRECTD27*
21,1,0.95000,0.90000,0,0,0.0*
21,1,0.40000,1.45000,0,0,0.0*
1,1,0.55000,0.20000,-0.45000*
1,1,0.55000,-0.20000,-0.45000*
1,1,0.55000,-0.20000,0.45000*
1,1,0.55000,0.20000,0.45000*
%
%ADD27ROUNDEDRECTD27*%
G04:AMPARAMS|DCode=28|XSize=0.75mm|YSize=0.95mm|CornerRadius=0.225mm|HoleSize=0mm|Usage=FLASHONLY|Rotation=0.000|XOffset=0mm|YOffset=0mm|HoleType=Round|Shape=RoundedRectangle|*
%AMROUNDEDRECTD28*
21,1,0.75000,0.50000,0,0,0.0*
21,1,0.30000,0.95000,0,0,0.0*
1,1,0.45000,0.15000,-0.25000*
1,1,0.45000,-0.15000,-0.25000*
1,1,0.45000,-0.15000,0.25000*
1,1,0.45000,0.15000,0.25000*
%
%ADD28ROUNDEDRECTD28*%
G04:AMPARAMS|DCode=29|XSize=1.15mm|YSize=2.65mm|CornerRadius=0.325mm|HoleSize=0mm|Usage=FLASHONLY|Rotation=0.000|XOffset=0mm|YOffset=0mm|HoleType=Round|Shape=RoundedRectangle|*
%AMROUNDEDRECTD29*
21,1,1.15000,2.00000,0,0,0.0*
21,1,0.50000,2.65000,0,0,0.0*
1,1,0.65000,0.25000,-1.00000*
1,1,0.65000,-0.25000,-1.00000*
1,1,0.65000,-0.25000,1.00000*
1,1,0.65000,0.25000,1.00000*
%
%ADD29ROUNDEDRECTD29*%
%TA.AperFunction,ComponentPad*%
%ADD30C,2.10000*%
%TA.AperFunction,ViaPad*%
%ADD31C,0.75000*%
%ADD32C,1.42000*%
D10*
X13157948Y10331700D02*
D03*
Y10426700D02*
D03*
Y10521700D02*
D03*
X12927852D02*
D03*
Y10426700D02*
D03*
Y10331700D02*
D03*
D14*
X12458700Y9760756D02*
D03*
Y10025844D02*
D03*
D26*
X12967900Y9753600D02*
D03*
X13117900D02*
D03*
X12955200Y9410700D02*
D03*
X13105200D02*
D03*
D27*
X12363700D02*
D03*
X12553700D02*
D03*
D28*
X13112900Y10007600D02*
D03*
X12972900D02*
D03*
D29*
X12621400Y10426700D02*
D03*
X12321400D02*
D03*
D30*
X12431523Y8775700D02*
D03*
X12931523D02*
D03*
X12431523Y11036300D02*
D03*
X12931523D02*
D03*
D31*
X13246100Y10223500D02*
D03*
X12192000Y9410700D02*
D03*
D32*
X12115800Y10426700D02*
D03*
%TF.MD5,4f2466f3c81d836696465d76c50fc8fe*%
M02*
