%TF.GenerationSoftware,Altium Limited,Altium Designer,23.11.1 (41)*%
G04 Layer_Physical_Order=1*
G04 Layer_Color=255*
%FSLAX45Y45*%
%MOMM*%
%TF.SameCoordinates,C7FADA28-A10F-464C-AF39-1642763F89C2*%
%TF.FilePolarity,Positive*%
%TF.FileFunction,Copper,L1,Top,Signal*%
%TF.Part,Single*%
G01*
G75*
%TA.AperFunction,SMDPad,CuDef*%
%ADD10R,1.80524X0.60981*%
G04:AMPARAMS|DCode=11|XSize=0.5mm|YSize=0.9mm|CornerRadius=0.125mm|HoleSize=0mm|Usage=FLASHONLY|Rotation=180.000|XOffset=0mm|YOffset=0mm|HoleType=Round|Shape=RoundedRectangle|*
%AMROUNDEDRECTD11*
21,1,0.50000,0.65000,0,0,180.0*
21,1,0.25000,0.90000,0,0,180.0*
1,1,0.25000,-0.12500,0.32500*
1,1,0.25000,0.12500,0.32500*
1,1,0.25000,0.12500,-0.32500*
1,1,0.25000,-0.12500,-0.32500*
%
%ADD11ROUNDEDRECTD11*%
G04:AMPARAMS|DCode=12|XSize=0.8mm|YSize=1.3mm|CornerRadius=0.2mm|HoleSize=0mm|Usage=FLASHONLY|Rotation=0.000|XOffset=0mm|YOffset=0mm|HoleType=Round|Shape=RoundedRectangle|*
%AMROUNDEDRECTD12*
21,1,0.80000,0.90000,0,0,0.0*
21,1,0.40000,1.30000,0,0,0.0*
1,1,0.40000,0.20000,-0.45000*
1,1,0.40000,-0.20000,-0.45000*
1,1,0.40000,-0.20000,0.45000*
1,1,0.40000,0.20000,0.45000*
%
%ADD12ROUNDEDRECTD12*%
G04:AMPARAMS|DCode=13|XSize=0.6mm|YSize=0.8mm|CornerRadius=0.15mm|HoleSize=0mm|Usage=FLASHONLY|Rotation=0.000|XOffset=0mm|YOffset=0mm|HoleType=Round|Shape=RoundedRectangle|*
%AMROUNDEDRECTD13*
21,1,0.60000,0.50000,0,0,0.0*
21,1,0.30000,0.80000,0,0,0.0*
1,1,0.30000,0.15000,-0.25000*
1,1,0.30000,-0.15000,-0.25000*
1,1,0.30000,-0.15000,0.25000*
1,1,0.30000,0.15000,0.25000*
%
%ADD13ROUNDEDRECTD13*%
%ADD14R,2.80415X1.55328*%
G04:AMPARAMS|DCode=15|XSize=1mm|YSize=2.5mm|CornerRadius=0.25mm|HoleSize=0mm|Usage=FLASHONLY|Rotation=0.000|XOffset=0mm|YOffset=0mm|HoleType=Round|Shape=RoundedRectangle|*
%AMROUNDEDRECTD15*
21,1,1.00000,2.00000,0,0,0.0*
21,1,0.50000,2.50000,0,0,0.0*
1,1,0.50000,0.25000,-1.00000*
1,1,0.50000,-0.25000,-1.00000*
1,1,0.50000,-0.25000,1.00000*
1,1,0.50000,0.25000,1.00000*
%
%ADD15ROUNDEDRECTD15*%
%TA.AperFunction,Conductor*%
%ADD16C,0.25400*%
%TA.AperFunction,ComponentPad*%
%ADD17C,1.95000*%
%TA.AperFunction,ViaPad*%
%ADD18C,0.60000*%
%ADD19C,1.27000*%
G36*
X14082507Y8409192D02*
X11685792D01*
Y11517108D01*
X14082507D01*
Y8409192D01*
D02*
G37*
%LPC*%
G36*
X12447703Y11159200D02*
X12444223D01*
Y11049000D01*
X12554423D01*
Y11052480D01*
X12546047Y11083738D01*
X12529867Y11111762D01*
X12506985Y11134644D01*
X12478960Y11150825D01*
X12447703Y11159200D01*
D02*
G37*
G36*
X12418823D02*
X12415343D01*
X12384085Y11150825D01*
X12356060Y11134644D01*
X12333178Y11111762D01*
X12316998Y11083738D01*
X12308623Y11052480D01*
Y11049000D01*
X12418823D01*
Y11159200D01*
D02*
G37*
G36*
X12554423Y11023600D02*
X12444223D01*
Y10913400D01*
X12447703D01*
X12478960Y10921775D01*
X12506985Y10937956D01*
X12529867Y10960838D01*
X12546047Y10988862D01*
X12554423Y11020120D01*
Y11023600D01*
D02*
G37*
G36*
X12418823D02*
X12308623D01*
Y11020120D01*
X12316998Y10988862D01*
X12333178Y10960838D01*
X12356060Y10937956D01*
X12384085Y10921775D01*
X12415343Y10913400D01*
X12418823D01*
Y11023600D01*
D02*
G37*
G36*
X12947704Y11159200D02*
X12915343D01*
X12884085Y11150825D01*
X12856059Y11134644D01*
X12833179Y11111762D01*
X12816998Y11083738D01*
X12808623Y11052480D01*
Y11020120D01*
X12816998Y10988862D01*
X12833179Y10960838D01*
X12856059Y10937956D01*
X12884085Y10921775D01*
X12892676Y10919473D01*
Y10577590D01*
X12812190D01*
Y10465547D01*
X12697787D01*
Y10526700D01*
X12693876Y10546365D01*
X12682736Y10563036D01*
X12666065Y10574175D01*
X12646400Y10578087D01*
X12596400D01*
X12576735Y10574175D01*
X12560064Y10563036D01*
X12548924Y10546365D01*
X12545013Y10526700D01*
Y10326700D01*
X12548924Y10307035D01*
X12560064Y10290363D01*
X12576735Y10279224D01*
X12596400Y10275312D01*
X12646400D01*
X12666065Y10279224D01*
X12682736Y10290363D01*
X12693876Y10307035D01*
X12697787Y10326700D01*
Y10387853D01*
X12812190D01*
Y10275810D01*
X12889005D01*
Y10064690D01*
X12624307D01*
Y10128907D01*
X12293093D01*
Y9922780D01*
X12624307D01*
Y9986997D01*
X12916708D01*
Y9982600D01*
X12919844Y9966837D01*
X12928773Y9953473D01*
X12942137Y9944544D01*
X12957899Y9941409D01*
X12987900D01*
X13003664Y9944544D01*
X13017027Y9953473D01*
X13025957Y9966837D01*
X13029091Y9982600D01*
Y10032600D01*
X13025957Y10048363D01*
X13017027Y10061727D01*
X13003664Y10070656D01*
X12987900Y10073791D01*
X12972891D01*
X12966698Y10079984D01*
Y10275810D01*
X13119102D01*
Y10079984D01*
X13112909Y10073791D01*
X13097900D01*
X13082137Y10070656D01*
X13068773Y10061727D01*
X13059843Y10048363D01*
X13056709Y10032600D01*
Y9982600D01*
X13059843Y9966837D01*
X13068773Y9953473D01*
X13082137Y9944544D01*
X13097900Y9941409D01*
X13127901D01*
X13143663Y9944544D01*
X13157027Y9953473D01*
X13165956Y9966837D01*
X13169092Y9982600D01*
Y10020099D01*
X13185417Y10036425D01*
X13193839Y10049027D01*
X13196796Y10063893D01*
Y10176497D01*
X13209496Y10181758D01*
X13214719Y10176534D01*
X13233400Y10168796D01*
Y10223500D01*
X13246100D01*
Y10236200D01*
X13300804D01*
X13293066Y10254881D01*
X13281549Y10266398D01*
X13273610Y10275810D01*
Y10370810D01*
Y10414000D01*
X13157947D01*
Y10439400D01*
X13273610D01*
Y10453293D01*
X13286310Y10458553D01*
X13385052Y10359810D01*
Y10036391D01*
X13161696Y9813033D01*
X13157724Y9813425D01*
X13145187Y9821801D01*
X13130400Y9824742D01*
X13105400D01*
X13090611Y9821801D01*
X13078076Y9813424D01*
X13069699Y9800888D01*
X13066759Y9786100D01*
Y9721100D01*
X13069699Y9706312D01*
X13073305Y9700918D01*
Y9475822D01*
X13065376Y9470524D01*
X13056999Y9457988D01*
X13054057Y9443200D01*
Y9378200D01*
X13056999Y9363412D01*
X13065376Y9350876D01*
X13077911Y9342499D01*
X13092700Y9339558D01*
X13117700D01*
X13132487Y9342499D01*
X13145026Y9350876D01*
X13153401Y9363412D01*
X13156342Y9378200D01*
Y9443200D01*
X13153401Y9457988D01*
X13150996Y9461586D01*
Y9689280D01*
X13157726Y9693776D01*
X13166101Y9706312D01*
X13168216Y9716945D01*
X13172066Y9717711D01*
X13184669Y9726131D01*
X13451369Y9992831D01*
X13459789Y10005434D01*
X13462747Y10020300D01*
Y10375900D01*
X13459789Y10390766D01*
X13451369Y10403369D01*
X13305569Y10549169D01*
X13292966Y10557590D01*
X13278101Y10560547D01*
X13273610D01*
Y10577590D01*
X12970369D01*
Y10919473D01*
X12978960Y10921775D01*
X13006985Y10937956D01*
X13029868Y10960838D01*
X13046046Y10988862D01*
X13054424Y11020120D01*
Y11052480D01*
X13046046Y11083738D01*
X13029868Y11111762D01*
X13006985Y11134644D01*
X12978960Y11150825D01*
X12947704Y11159200D01*
D02*
G37*
G36*
X12128500Y10515333D02*
Y10439400D01*
X12204433D01*
X12198642Y10461014D01*
X12186938Y10481286D01*
X12170386Y10497838D01*
X12150114Y10509542D01*
X12128500Y10515333D01*
D02*
G37*
G36*
X12103100D02*
X12081486Y10509542D01*
X12061214Y10497838D01*
X12044662Y10481286D01*
X12032958Y10461014D01*
X12027167Y10439400D01*
X12103100D01*
Y10515333D01*
D02*
G37*
G36*
X12346400Y10578087D02*
X12334100D01*
Y10439400D01*
X12397787D01*
Y10526700D01*
X12393876Y10546365D01*
X12382736Y10563036D01*
X12366065Y10574175D01*
X12346400Y10578087D01*
D02*
G37*
G36*
X12308700D02*
X12296400D01*
X12276735Y10574175D01*
X12260064Y10563036D01*
X12248924Y10546365D01*
X12245013Y10526700D01*
Y10439400D01*
X12308700D01*
Y10578087D01*
D02*
G37*
G36*
X12204433Y10414000D02*
X12128500D01*
Y10338067D01*
X12150114Y10343858D01*
X12170386Y10355562D01*
X12186938Y10372114D01*
X12198642Y10392386D01*
X12204433Y10414000D01*
D02*
G37*
G36*
X12103100D02*
X12027167D01*
X12032958Y10392386D01*
X12044662Y10372114D01*
X12061214Y10355562D01*
X12081486Y10343858D01*
X12103100Y10338067D01*
Y10414000D01*
D02*
G37*
G36*
X12397787Y10414000D02*
X12334100D01*
Y10275312D01*
X12346400D01*
X12366065Y10279224D01*
X12382736Y10290363D01*
X12393876Y10307035D01*
X12397787Y10326700D01*
Y10414000D01*
D02*
G37*
G36*
X12308700D02*
X12245013D01*
Y10326700D01*
X12248924Y10307035D01*
X12260064Y10290363D01*
X12276735Y10279224D01*
X12296400Y10275312D01*
X12308700D01*
Y10414000D01*
D02*
G37*
G36*
X13300804Y10210800D02*
X13258800D01*
Y10168796D01*
X13277481Y10176534D01*
X13293066Y10192119D01*
X13300804Y10210800D01*
D02*
G37*
G36*
X12624307Y9863820D02*
X12293093D01*
Y9657692D01*
X12514854D01*
Y9497709D01*
X12500968Y9488432D01*
X12490934Y9473414D01*
X12487411Y9455700D01*
Y9365700D01*
X12490934Y9347986D01*
X12500968Y9332968D01*
X12514854Y9323691D01*
Y8913968D01*
X12486663Y8885778D01*
X12478960Y8890225D01*
X12447703Y8898600D01*
X12415343D01*
X12384085Y8890225D01*
X12356060Y8874044D01*
X12333178Y8851162D01*
X12316998Y8823138D01*
X12308623Y8791880D01*
Y8759520D01*
X12316998Y8728262D01*
X12333178Y8700238D01*
X12356060Y8677356D01*
X12384085Y8661175D01*
X12415343Y8652800D01*
X12447703D01*
X12478960Y8661175D01*
X12506985Y8677356D01*
X12529867Y8700238D01*
X12546047Y8728262D01*
X12554423Y8759520D01*
Y8791880D01*
X12546047Y8823138D01*
X12541600Y8830840D01*
X12581169Y8870409D01*
X12589590Y8883011D01*
X12592547Y8897877D01*
Y9323691D01*
X12606432Y9332968D01*
X12616466Y9347986D01*
X12619989Y9365700D01*
Y9455700D01*
X12616466Y9473414D01*
X12606432Y9488432D01*
X12592547Y9497709D01*
Y9657692D01*
X12624307D01*
Y9714753D01*
X12918021D01*
X12919699Y9706312D01*
X12928075Y9693776D01*
X12940611Y9685399D01*
X12955400Y9682458D01*
X12980400D01*
X12995187Y9685399D01*
X13007724Y9693776D01*
X13016101Y9706312D01*
X13019041Y9721100D01*
Y9786100D01*
X13016101Y9800888D01*
X13007724Y9813424D01*
X12995187Y9821801D01*
X12980400Y9824742D01*
X12955400D01*
X12940611Y9821801D01*
X12928075Y9813424D01*
X12919699Y9800888D01*
X12918021Y9792447D01*
X12624307D01*
Y9863820D01*
D02*
G37*
G36*
X12967900Y9481802D02*
Y9423400D01*
X13006342D01*
Y9443200D01*
X13003401Y9457988D01*
X12995024Y9470524D01*
X12982487Y9478901D01*
X12967900Y9481802D01*
D02*
G37*
G36*
X12942500D02*
X12927911Y9478901D01*
X12915375Y9470524D01*
X12906999Y9457988D01*
X12904057Y9443200D01*
Y9423400D01*
X12942500D01*
Y9481802D01*
D02*
G37*
G36*
X12383700Y9501989D02*
X12376400D01*
Y9423400D01*
X12429989D01*
Y9455700D01*
X12426466Y9473414D01*
X12416432Y9488432D01*
X12401414Y9498466D01*
X12383700Y9501989D01*
D02*
G37*
G36*
X12351000D02*
X12343700D01*
X12325986Y9498466D01*
X12310968Y9488432D01*
X12300934Y9473414D01*
X12297411Y9455700D01*
Y9423400D01*
X12351000D01*
Y9501989D01*
D02*
G37*
G36*
X12204700Y9465404D02*
Y9423400D01*
X12246704D01*
X12238966Y9442081D01*
X12223381Y9457666D01*
X12204700Y9465404D01*
D02*
G37*
G36*
X12179300D02*
X12160619Y9457666D01*
X12145034Y9442081D01*
X12137296Y9423400D01*
X12179300D01*
Y9465404D01*
D02*
G37*
G36*
X12246704Y9398000D02*
X12204700D01*
Y9355996D01*
X12223381Y9363734D01*
X12238966Y9379319D01*
X12246704Y9398000D01*
D02*
G37*
G36*
X12179300D02*
X12137296D01*
X12145034Y9379319D01*
X12160619Y9363734D01*
X12179300Y9355996D01*
Y9398000D01*
D02*
G37*
G36*
X13006342D02*
X12967900D01*
Y9339598D01*
X12982487Y9342499D01*
X12995024Y9350876D01*
X13003401Y9363412D01*
X13006342Y9378200D01*
Y9398000D01*
D02*
G37*
G36*
X12942500D02*
X12904057D01*
Y9378200D01*
X12906999Y9363412D01*
X12915375Y9350876D01*
X12927911Y9342499D01*
X12942500Y9339598D01*
Y9398000D01*
D02*
G37*
G36*
X12429989D02*
X12376400D01*
Y9319411D01*
X12383700D01*
X12401414Y9322934D01*
X12416432Y9332968D01*
X12426466Y9347986D01*
X12429989Y9365700D01*
Y9398000D01*
D02*
G37*
G36*
X12351000D02*
X12297411D01*
Y9365700D01*
X12300934Y9347986D01*
X12310968Y9332968D01*
X12325986Y9322934D01*
X12343700Y9319411D01*
X12351000D01*
Y9398000D01*
D02*
G37*
G36*
X12947704Y8898600D02*
X12944223D01*
Y8788400D01*
X13054424D01*
Y8791880D01*
X13046046Y8823138D01*
X13029868Y8851162D01*
X13006985Y8874044D01*
X12978960Y8890225D01*
X12947704Y8898600D01*
D02*
G37*
G36*
X12918823D02*
X12915343D01*
X12884085Y8890225D01*
X12856059Y8874044D01*
X12833179Y8851162D01*
X12816998Y8823138D01*
X12808623Y8791880D01*
Y8788400D01*
X12918823D01*
Y8898600D01*
D02*
G37*
G36*
X13054424Y8763000D02*
X12944223D01*
Y8652800D01*
X12947704D01*
X12978960Y8661175D01*
X13006985Y8677356D01*
X13029868Y8700238D01*
X13046046Y8728262D01*
X13054424Y8759520D01*
Y8763000D01*
D02*
G37*
G36*
X12918823D02*
X12808623D01*
Y8759520D01*
X12816998Y8728262D01*
X12833179Y8700238D01*
X12856059Y8677356D01*
X12884085Y8661175D01*
X12915343Y8652800D01*
X12918823D01*
Y8763000D01*
D02*
G37*
%LPD*%
D10*
X13157948Y10331700D02*
D03*
Y10426700D02*
D03*
Y10521700D02*
D03*
X12927852D02*
D03*
Y10426700D02*
D03*
Y10331700D02*
D03*
D11*
X12967900Y9753600D02*
D03*
X13117900D02*
D03*
X12955200Y9410700D02*
D03*
X13105200D02*
D03*
D12*
X12363700D02*
D03*
X12553700D02*
D03*
D13*
X13112900Y10007600D02*
D03*
X12972900D02*
D03*
D14*
X12458700Y9760756D02*
D03*
Y10025844D02*
D03*
D15*
X12621400Y10426700D02*
D03*
X12321400D02*
D03*
D16*
X13423900Y10020300D02*
Y10375900D01*
X13157201Y9753600D02*
X13423900Y10020300D01*
X13278101Y10521700D02*
X13423900Y10375900D01*
X12495892Y9753600D02*
X12967900D01*
X13112151Y9417650D02*
Y9747850D01*
X13117900Y9753600D01*
X13105200Y9410700D02*
X13112151Y9417650D01*
X13117900Y9753600D02*
X13157201D01*
X13182600Y10349490D02*
Y10350500D01*
X13157948Y10331700D02*
X13164810D01*
X13182600Y10349490D01*
X13157948Y10521700D02*
X13278101D01*
X12495892Y9753600D02*
X12553700Y9695792D01*
X12488736Y9760756D02*
X12495892Y9753600D01*
X12553700Y9410700D02*
Y9695792D01*
X12458700Y9760756D02*
X12488736D01*
X12431523Y8775700D02*
X12553700Y8897877D01*
Y9410700D01*
X12972900Y10008719D02*
Y10018845D01*
X12955775Y10025844D02*
X12972900Y10008719D01*
Y10007600D02*
Y10008719D01*
X12458700Y10025844D02*
X12955775D01*
X13112900Y10018845D02*
X13157948Y10063893D01*
X13112900Y10007600D02*
Y10018845D01*
X13157948Y10063893D02*
Y10331700D01*
X12927852Y10063893D02*
X12972900Y10018845D01*
X12927852Y10063893D02*
Y10331700D01*
X12931523Y10430371D02*
Y11036300D01*
X12621400Y10426700D02*
X12621400Y10426700D01*
X12927852D01*
X12931523Y10430371D01*
D17*
X12431523Y8775700D02*
D03*
X12931523D02*
D03*
X12431523Y11036300D02*
D03*
X12931523D02*
D03*
D18*
X13246100Y10223500D02*
D03*
X12192000Y9410700D02*
D03*
D19*
X12115800Y10426700D02*
D03*
%TF.MD5,a4b704560bb4fef854538823f92893cf*%
M02*
