%TF.GenerationSoftware,Altium Limited,Altium Designer,23.11.1 (41)*%
G04 Layer_Physical_Order=2*
G04 Layer_Color=16711680*
%FSLAX45Y45*%
%MOMM*%
%TF.SameCoordinates,330A6DB1-863D-4B25-85AF-6ED880A08339*%
%TF.FilePolarity,Positive*%
%TF.FileFunction,Copper,L2,Bot,Signal*%
%TF.Part,Single*%
G01*
G75*
%TA.AperFunction,ComponentPad*%
%ADD17C,1.95000*%
%TA.AperFunction,ViaPad*%
%ADD18C,0.60000*%
%ADD19C,1.27000*%
G36*
X14082507Y8409192D02*
X11685792D01*
Y11517108D01*
X14082507D01*
Y8409192D01*
D02*
G37*
%LPC*%
G36*
X12447703Y11159200D02*
X12444223D01*
Y11049000D01*
X12554423D01*
Y11052480D01*
X12546047Y11083738D01*
X12529867Y11111762D01*
X12506985Y11134644D01*
X12478960Y11150825D01*
X12447703Y11159200D01*
D02*
G37*
G36*
X12418823D02*
X12415343D01*
X12384085Y11150825D01*
X12356060Y11134644D01*
X12333178Y11111762D01*
X12316998Y11083738D01*
X12308623Y11052480D01*
Y11049000D01*
X12418823D01*
Y11159200D01*
D02*
G37*
G36*
X12947704D02*
X12915343D01*
X12884085Y11150825D01*
X12856059Y11134644D01*
X12833179Y11111762D01*
X12816998Y11083738D01*
X12808623Y11052480D01*
Y11020120D01*
X12816998Y10988862D01*
X12833179Y10960838D01*
X12856059Y10937956D01*
X12884085Y10921775D01*
X12915343Y10913400D01*
X12947704D01*
X12978960Y10921775D01*
X13006985Y10937956D01*
X13029868Y10960838D01*
X13046046Y10988862D01*
X13054424Y11020120D01*
Y11052480D01*
X13046046Y11083738D01*
X13029868Y11111762D01*
X13006985Y11134644D01*
X12978960Y11150825D01*
X12947704Y11159200D01*
D02*
G37*
G36*
X12554423Y11023600D02*
X12444223D01*
Y10913400D01*
X12447703D01*
X12478960Y10921775D01*
X12506985Y10937956D01*
X12529867Y10960838D01*
X12546047Y10988862D01*
X12554423Y11020120D01*
Y11023600D01*
D02*
G37*
G36*
X12418823D02*
X12308623D01*
Y11020120D01*
X12316998Y10988862D01*
X12333178Y10960838D01*
X12356060Y10937956D01*
X12384085Y10921775D01*
X12415343Y10913400D01*
X12418823D01*
Y11023600D01*
D02*
G37*
G36*
X12128500Y10515333D02*
Y10439400D01*
X12204433D01*
X12198642Y10461014D01*
X12186938Y10481286D01*
X12170386Y10497838D01*
X12150114Y10509542D01*
X12128500Y10515333D01*
D02*
G37*
G36*
X12103100D02*
X12081486Y10509542D01*
X12061214Y10497838D01*
X12044662Y10481286D01*
X12032958Y10461014D01*
X12027167Y10439400D01*
X12103100D01*
Y10515333D01*
D02*
G37*
G36*
X12204433Y10414000D02*
X12128500D01*
Y10338067D01*
X12150114Y10343858D01*
X12170386Y10355562D01*
X12186938Y10372114D01*
X12198642Y10392386D01*
X12204433Y10414000D01*
D02*
G37*
G36*
X12103100D02*
X12027167D01*
X12032958Y10392386D01*
X12044662Y10372114D01*
X12061214Y10355562D01*
X12081486Y10343858D01*
X12103100Y10338067D01*
Y10414000D01*
D02*
G37*
G36*
X13258800Y10278204D02*
Y10236200D01*
X13300804D01*
X13293066Y10254881D01*
X13277481Y10270466D01*
X13258800Y10278204D01*
D02*
G37*
G36*
X13233400D02*
X13214719Y10270466D01*
X13199133Y10254881D01*
X13191396Y10236200D01*
X13233400D01*
Y10278204D01*
D02*
G37*
G36*
X13300804Y10210800D02*
X13258800D01*
Y10168796D01*
X13277481Y10176534D01*
X13293066Y10192119D01*
X13300804Y10210800D01*
D02*
G37*
G36*
X13233400D02*
X13191396D01*
X13199133Y10192119D01*
X13214719Y10176534D01*
X13233400Y10168796D01*
Y10210800D01*
D02*
G37*
G36*
X12204700Y9465404D02*
Y9423400D01*
X12246704D01*
X12238966Y9442081D01*
X12223381Y9457666D01*
X12204700Y9465404D01*
D02*
G37*
G36*
X12179300D02*
X12160619Y9457666D01*
X12145034Y9442081D01*
X12137296Y9423400D01*
X12179300D01*
Y9465404D01*
D02*
G37*
G36*
X12246704Y9398000D02*
X12204700D01*
Y9355996D01*
X12223381Y9363734D01*
X12238966Y9379319D01*
X12246704Y9398000D01*
D02*
G37*
G36*
X12179300D02*
X12137296D01*
X12145034Y9379319D01*
X12160619Y9363734D01*
X12179300Y9355996D01*
Y9398000D01*
D02*
G37*
G36*
X12947704Y8898600D02*
X12944223D01*
Y8788400D01*
X13054424D01*
Y8791880D01*
X13046046Y8823138D01*
X13029868Y8851162D01*
X13006985Y8874044D01*
X12978960Y8890225D01*
X12947704Y8898600D01*
D02*
G37*
G36*
X12918823D02*
X12915343D01*
X12884085Y8890225D01*
X12856059Y8874044D01*
X12833179Y8851162D01*
X12816998Y8823138D01*
X12808623Y8791880D01*
Y8788400D01*
X12918823D01*
Y8898600D01*
D02*
G37*
G36*
X13054424Y8763000D02*
X12944223D01*
Y8652800D01*
X12947704D01*
X12978960Y8661175D01*
X13006985Y8677356D01*
X13029868Y8700238D01*
X13046046Y8728262D01*
X13054424Y8759520D01*
Y8763000D01*
D02*
G37*
G36*
X12918823D02*
X12808623D01*
Y8759520D01*
X12816998Y8728262D01*
X12833179Y8700238D01*
X12856059Y8677356D01*
X12884085Y8661175D01*
X12915343Y8652800D01*
X12918823D01*
Y8763000D01*
D02*
G37*
G36*
X12447703Y8898600D02*
X12415343D01*
X12384085Y8890225D01*
X12356060Y8874044D01*
X12333178Y8851162D01*
X12316998Y8823138D01*
X12308623Y8791880D01*
Y8759520D01*
X12316998Y8728262D01*
X12333178Y8700238D01*
X12356060Y8677356D01*
X12384085Y8661175D01*
X12415343Y8652800D01*
X12447703D01*
X12478960Y8661175D01*
X12506985Y8677356D01*
X12529867Y8700238D01*
X12546047Y8728262D01*
X12554423Y8759520D01*
Y8791880D01*
X12546047Y8823138D01*
X12529867Y8851162D01*
X12506985Y8874044D01*
X12478960Y8890225D01*
X12447703Y8898600D01*
D02*
G37*
%LPD*%
D17*
X12431523Y8775700D02*
D03*
X12931523D02*
D03*
X12431523Y11036300D02*
D03*
X12931523D02*
D03*
D18*
X13246100Y10223500D02*
D03*
X12192000Y9410700D02*
D03*
D19*
X12115800Y10426700D02*
D03*
%TF.MD5,e462a57de4acd3256d288f3105442591*%
M02*
